# xmcd
#
# Track frame offsets: 
#        150
#        11451
#        27894
#        42502
#        56032
#        71070
#        84431
#        97572
#        110228
#        125242
#        139796
#        155902
#        173408
#        192139
#        206455
#        222483
#        239874
#        253539
#        268265
#        285328
#        298326
#        314134
#
# Disc length: 4383 seconds
#
# Revision: 0
# Processed by: cddbd v1.5.2PL0 Copyright (c) Steve Scherf et al.
# Submitted via: ExactAudioCopy v1.1
#
DISCID=5a111d16
DTITLE=Various Artist - Viva Vlaanderen Presenteert Radio 2 Zomerhit 2018 - C
DTITLE=D 2
DYEAR=2018
DGENRE=Top 40
TTITLE0=Lost Frequencies and James Blunt - Melody
TTITLE1=Willy Sommers - Comme Ci, Comme Ca
TTITLE2=Milo Meskens - Stone Cold Liar
TTITLE3=Luc Steeno - Hoe Doe Je Dat?
TTITLE4=De Romeo's - Wauw!
TTITLE5=Sabien Tiels - Jij Kent Me Beter Dan Ik
TTITLE6=Lea Rue - River
TTITLE7=Amaryllis Temmerman - Vol Mooie Dromen
TTITLE8=Coco Jr. - Won't You Help Me (Live)
TTITLE9=Bart Kaëll - We Doen Het Morgen Wel
TTITLE10=Liliane Saint-Pierre - Een Sprong In Het Duister
TTITLE11=Sergio - Weg Van Jou
TTITLE12=Paul Michiels - Ageless
TTITLE13=Eveline Cannoot - Adrenaline
TTITLE14=Wim Soutaer - Neem Me Bij De Hand
TTITLE15=Dean - Kristal
TTITLE16=Brahim - In The Mood
TTITLE17=Sasha and Davy - Wonder
TTITLE18=Koen Crucke - Wat Een Zonnige Dag
TTITLE19=Celien - Ritme In Mij
TTITLE20=Wendy Van Wanten - Niets Voor Niets
TTITLE21=Siham - Báilame
EXTD=
EXTT0=
EXTT1=
EXTT2=
EXTT3=
EXTT4=
EXTT5=
EXTT6=
EXTT7=
EXTT8=
EXTT9=
EXTT10=
EXTT11=
EXTT12=
EXTT13=
EXTT14=
EXTT15=
EXTT16=
EXTT17=
EXTT18=
EXTT19=
EXTT20=
EXTT21=
PLAYORDER=
